<svg xmlns="http://www.w3.org/2000/svg" width="768" height="432" viewBox="0 0 768 432">
<defs>
  <filter id="sh" x="-20%" y="-20%" width="140%" height="150%">
    <feDropShadow dx="0" dy="3.5" stdDeviation="6" flood-color="#000" flood-opacity="0.08"/>
  </filter>
  <marker id="ar" viewBox="0 0 10 10" refX="7.2" refY="5" markerWidth="10.5" markerHeight="10.5" orient="auto">
    <path d="M0.8 1.2 L8.6 5 L0.8 8.8 z" fill="#8F8F8F" stroke="#fff" stroke-width="1.3" stroke-linejoin="round"/>
  </marker>
  <linearGradient id="bub" x1="0" y1="0" x2="1" y2="1">
    <stop offset="0" stop-color="#FF7F50"/><stop offset="1" stop-color="#FFA07A"/>
  </linearGradient>
  <linearGradient id="rib" x1="0" y1="0" x2="1" y2="0">
    <stop offset="0" stop-color="#FFD9CC"/><stop offset=".5" stop-color="#FF7F50"/>
    <stop offset="1" stop-color="#FFD9CC"/>
  </linearGradient>
  
</defs>
<rect width="768" height="432" fill="#fff"/>

<text x="32" y="36" font-family="'Helvetica Neue','PingFang SC','Noto Sans CJK SC','Microsoft YaHei',Arial,sans-serif" font-size="25" font-weight="700" fill="#3A3A3A" text-anchor="start" dominant-baseline="central">Four Systems</text>
<rect x="32" y="58" width="64" height="5" rx="2.5" fill="url(#rib)"/>
<rect x="32" y="92" width="344" height="156" rx="22" fill="#fff" stroke="#E4E4E4" stroke-width="2" filter="url(#sh)"/>
<rect x="56" y="142" width="56" height="56" rx="18" fill="#FFF1EC"/>
<g transform="translate(70,156) scale(1.1667)" fill="none" stroke="#FF7F50" stroke-width="1.71" stroke-linecap="round" stroke-linejoin="round"><path d="M12 20.5C12 20.5 4 14.5 4 8.8C4 5.8 6.4 3.5 9.3 3.5C10.9 3.5 12 4.6 12 4.6C12 4.6 13.1 3.5 14.7 3.5C17.6 3.5 20 5.8 20 8.8C20 14.5 12 20.5 12 20.5Z"/><path d="M5.5 11.5H9L10.5 8.5L12.5 14L14 11.5H18.5"/></g>
<text x="132" y="148" font-family="'Helvetica Neue','PingFang SC','Noto Sans CJK SC','Microsoft YaHei',Arial,sans-serif" font-size="16.5" font-weight="700" fill="#3A3A3A" text-anchor="start" dominant-baseline="central">Active Consciousness</text>
<text x="132" y="176" font-family="'Helvetica Neue','PingFang SC','Noto Sans CJK SC','Microsoft YaHei',Arial,sans-serif" font-size="12.5" font-weight="400" fill="#838383" text-anchor="start" dominant-baseline="central">Heartbeat-driven thoughts &amp; emotion</text>
<rect x="392" y="92" width="344" height="156" rx="22" fill="#fff" stroke="#E4E4E4" stroke-width="2" filter="url(#sh)"/>
<rect x="416" y="142" width="56" height="56" rx="18" fill="#FFF1EC"/>
<g transform="translate(430,156) scale(1.1667)" fill="none" stroke="#FF7F50" stroke-width="1.71" stroke-linecap="round" stroke-linejoin="round"><rect x="3.5" y="7.5" width="17" height="12" rx="3.5"/><path d="M5 9.5L12 14.5L19 9.5"/><path d="M12 2V5.5M9.5 3.5L12 6L14.5 3.5"/></g>
<text x="492" y="148" font-family="'Helvetica Neue','PingFang SC','Noto Sans CJK SC','Microsoft YaHei',Arial,sans-serif" font-size="16.5" font-weight="700" fill="#3A3A3A" text-anchor="start" dominant-baseline="central">Passive Consciousness</text>
<text x="492" y="176" font-family="'Helvetica Neue','PingFang SC','Noto Sans CJK SC','Microsoft YaHei',Arial,sans-serif" font-size="12.5" font-weight="400" fill="#838383" text-anchor="start" dominant-baseline="central">Context injection on every message</text>
<rect x="32" y="264" width="344" height="156" rx="22" fill="#fff" stroke="#E4E4E4" stroke-width="2" filter="url(#sh)"/>
<rect x="56" y="314" width="56" height="56" rx="18" fill="#FFF1EC"/>
<g transform="translate(70,328) scale(1.1667)" fill="none" stroke="#FF7F50" stroke-width="1.71" stroke-linecap="round" stroke-linejoin="round"><path d="M8.5 20.5H7A3.5 3.5 0 0 1 5 14A3.5 3.5 0 0 1 6.5 7.5A3.6 3.6 0 0 1 10 4.5A3.5 3.5 0 0 1 15.5 5.5A3.5 3.5 0 0 1 19 9A3.5 3.5 0 0 1 18 15.5A3.5 3.5 0 0 1 15.5 20.5H14"/><path d="M12 5V20.5"/></g>
<text x="132" y="320" font-family="'Helvetica Neue','PingFang SC','Noto Sans CJK SC','Microsoft YaHei',Arial,sans-serif" font-size="16.5" font-weight="700" fill="#3A3A3A" text-anchor="start" dominant-baseline="central">Free Consciousness</text>
<text x="132" y="348" font-family="'Helvetica Neue','PingFang SC','Noto Sans CJK SC','Microsoft YaHei',Arial,sans-serif" font-size="12.5" font-weight="400" fill="#838383" text-anchor="start" dominant-baseline="central">Autonomous contemplation &amp; sediment</text>
<rect x="392" y="264" width="344" height="156" rx="22" fill="#fff" stroke="#E4E4E4" stroke-width="2" filter="url(#sh)"/>
<rect x="416" y="314" width="56" height="56" rx="18" fill="#FFF1EC"/>
<g transform="translate(430,328) scale(1.1667)" fill="none" stroke="#FF7F50" stroke-width="1.71" stroke-linecap="round" stroke-linejoin="round"><rect x="3.5" y="5.5" width="13" height="14" rx="3"/><path d="M7 2.5V6M13 2.5V6M3.5 10H16.5"/><circle cx="18" cy="17" r="4.2"/><path d="M18 15.2V17L19.4 18"/></g>
<text x="492" y="320" font-family="'Helvetica Neue','PingFang SC','Noto Sans CJK SC','Microsoft YaHei',Arial,sans-serif" font-size="16.5" font-weight="700" fill="#3A3A3A" text-anchor="start" dominant-baseline="central">Scheduled Tasks</text>
<text x="492" y="348" font-family="'Helvetica Neue','PingFang SC','Noto Sans CJK SC','Microsoft YaHei',Arial,sans-serif" font-size="12.5" font-weight="400" fill="#838383" text-anchor="start" dominant-baseline="central">Visual cron with prompt templates</text>
</svg>